<svg width="24" height="24" viewBox="0 0 20 20" fill="none" xmlns="http://www.w3.org/2000/svg">
<path d="M13.7729 12.9771C13.8786 13.0827 13.938 13.226 13.938 13.3755C13.938 13.5249 13.8786 13.6683 13.7729 13.7739C13.6673 13.8796 13.524 13.939 13.3745 13.939C13.2251 13.939 13.0817 13.8796 12.9761 13.7739L9.99998 10.7969L7.02295 13.773C6.91728 13.8787 6.77395 13.938 6.62451 13.938C6.47507 13.938 6.33175 13.8787 6.22607 13.773C6.1204 13.6673 6.06104 13.524 6.06104 13.3746C6.06104 13.2251 6.1204 13.0818 6.22607 12.9761L9.2031 10L6.22701 7.02299C6.12134 6.91732 6.06197 6.774 6.06197 6.62455C6.06197 6.47511 6.12134 6.33179 6.22701 6.22611C6.33268 6.12044 6.47601 6.06108 6.62545 6.06108C6.77489 6.06108 6.91821 6.12044 7.02389 6.22611L9.99998 9.20315L12.977 6.22565C13.0827 6.11997 13.226 6.06061 13.3754 6.06061C13.5249 6.06061 13.6682 6.11997 13.7739 6.22565C13.8796 6.33132 13.9389 6.47464 13.9389 6.62408C13.9389 6.77353 13.8796 6.91685 13.7739 7.02252L10.7969 10L13.7729 12.9771Z" fill="#B51919"/>
</svg>
