<svg width="24" height="24" viewBox="0 0 18 18" fill="none" xmlns="http://www.w3.org/2000/svg">
<path d="M15.1875 2.81247V15.75C15.1875 15.8992 15.1282 16.0422 15.0227 16.1477C14.9173 16.2532 14.7742 16.3125 14.625 16.3125C14.4758 16.3125 14.3327 16.2532 14.2273 16.1477C14.1218 16.0422 14.0625 15.8992 14.0625 15.75V12.375H10.6875C10.5383 12.375 10.3952 12.3157 10.2898 12.2102C10.1843 12.1047 10.125 11.9617 10.125 11.8125C10.1511 10.4651 10.3213 9.1243 10.6327 7.8131C11.3203 4.96614 12.6239 3.05786 14.4035 2.29567C14.4891 2.25903 14.5823 2.24419 14.675 2.25246C14.7677 2.26074 14.8569 2.29188 14.9346 2.34309C15.0123 2.39431 15.076 2.46399 15.1202 2.54591C15.1643 2.62783 15.1875 2.71942 15.1875 2.81247ZM8.42977 2.72036C8.41875 2.6465 8.39314 2.57557 8.35442 2.51172C8.3157 2.44786 8.26466 2.39235 8.20426 2.34843C8.14387 2.30451 8.07533 2.27305 8.00266 2.25589C7.92998 2.23873 7.85461 2.23622 7.78095 2.2485C7.70728 2.26078 7.63681 2.2876 7.57362 2.3274C7.51043 2.3672 7.4558 2.41918 7.41292 2.48032C7.37003 2.54146 7.33975 2.61052 7.32384 2.68348C7.30793 2.75644 7.3067 2.83184 7.32023 2.90528L7.86727 6.18747H6.1875V2.81247C6.1875 2.66329 6.12824 2.52021 6.02275 2.41472C5.91726 2.30923 5.77418 2.24997 5.625 2.24997C5.47582 2.24997 5.33274 2.30923 5.22725 2.41472C5.12176 2.52021 5.0625 2.66329 5.0625 2.81247V6.18747H3.38273L3.92977 2.90528C3.9433 2.83184 3.94207 2.75644 3.92616 2.68348C3.91025 2.61052 3.87997 2.54146 3.83708 2.48032C3.7942 2.41918 3.73957 2.3672 3.67638 2.3274C3.61319 2.2876 3.54272 2.26078 3.46905 2.2485C3.39539 2.23622 3.32002 2.23873 3.24735 2.25589C3.17467 2.27305 3.10613 2.30451 3.04574 2.34843C2.98534 2.39235 2.9343 2.44786 2.89558 2.51172C2.85686 2.57557 2.83125 2.6465 2.82023 2.72036L2.25773 6.09536C2.25269 6.12581 2.2501 6.15661 2.25 6.18747C2.25112 6.98468 2.534 7.75584 3.04866 8.36467C3.56331 8.9735 4.2766 9.38082 5.0625 9.51466V15.75C5.0625 15.8992 5.12176 16.0422 5.22725 16.1477C5.33274 16.2532 5.47582 16.3125 5.625 16.3125C5.77418 16.3125 5.91726 16.2532 6.02275 16.1477C6.12824 16.0422 6.1875 15.8992 6.1875 15.75V9.51466C6.9734 9.38082 7.68669 8.9735 8.20134 8.36467C8.716 7.75584 8.99888 6.98468 9 6.18747C8.9999 6.15661 8.99731 6.12581 8.99227 6.09536L8.42977 2.72036Z" fill="#1F8459"/>
</svg>
